<?xml version="1.0" encoding="utf-8"?>
<!-- Generator: Adobe Illustrator 27.8.1, SVG Export Plug-In . SVG Version: 6.00 Build 0)  -->
<svg version="1.1" id="LOGO_4" xmlns="http://www.w3.org/2000/svg" xmlns:xlink="http://www.w3.org/1999/xlink" x="0px" y="0px"
	 viewBox="0 0 1862.8 605.5" style="enable-background:new 0 0 1862.8 605.5;" xml:space="preserve">
<style type="text/css">
	.st0{fill:#FFFFFF;}
</style>
<g>
	<g>
		<path class="st0" d="M1818.01,30.24h-9.18v21.74h-1.7V30.24h-9.06v-2.04h19.94V30.24z M1846.66,51.99h-1.92V30.47l-8.95,21.52
			h-2.61l-9.06-21.52v21.52h-1.7V28.21h2.04l9.97,22.99l9.96-22.99h2.27V51.99z"/>
	</g>
	<path class="st0" d="M1862.77,300.01C1861.35,134.9,1731.24,1.5,1570.94,1.5c-46.38,0-89.62,10.12-127.71,28.48
		C1405.6,11.72,1363.58,1.5,1319.24,1.5c-106.69,0-196.83,53.48-245.59,137.89c-11.93-17.7-25.82-34.33-41.6-49.63
		C972.3,31.88,892.87,0,808.38,0C723.9,0,644.47,31.88,584.73,89.76c-13.03,12.63-24.79,26.17-35.21,40.47
		C499.05,60.16,416.26,15.55,317.53,14.53l0.04-0.04h-3.48c0,0-0.01,0-0.01,0s-0.01,0-0.01,0H0V59.8v60.39v182.56h0.05c0,0,0,0,0,0
		H0v182.56v60.39V591h304.01l-0.03-0.03c97.04-0.84,183.12-46.13,237.6-115.87c10.57,15.91,22.73,30.78,36.43,44.4
		c55.78,55.46,132.83,86,216.97,86c42.92,0,85.03-7.7,125.17-22.89c39.21-14.84,74.59-36.05,105.14-63.06
		c3.18-2.81,6.27-5.68,9.3-8.58v76.86h45.31h60.39h146h36.56h0h8.75h60.39h113.43h60.39h8.75h0h36.56h146h60.39h45.31V299.99
		L1862.77,300.01z M301.25,491.92c-108.95,0-191.45-86.3-191.45-192.78c0-106.47,82.5-192.76,191.45-192.76
		c105.95,0,186.88,81.61,191.25,184.03c-0.28,5.35-0.44,10.72-0.44,16.11c0,2.52,0.03,5.03,0.09,7.54
		C484.86,413.56,405.06,491.92,301.25,491.92z M808.38,506.47c-111.35,0-198.57-87.83-198.57-199.95
		c0-112.13,87.22-199.96,198.57-199.96c111.35,0,198.58,87.83,198.58,199.96C1006.96,418.64,919.74,506.47,808.38,506.47z
		 M1512.02,302.74c0,59.73-25.94,111.51-66.93,146.1c-40.98-34.59-66.92-86.37-66.92-146.1c0-59.73,25.94-111.5,66.92-146.1
		C1486.08,191.24,1512.02,243.01,1512.02,302.74z M1126.48,302.74c0-108.94,86.29-191.44,192.76-191.44c8.01,0,15.9,0.48,23.65,1.38
		c-35.13,47.19-55.87,106.82-56.56,173.78l-0.04-0.04v3.48c0,0,0,0.01,0,0.01c0,0,0,0.01,0,0.01v201.56
		C1195.52,476.47,1126.48,400.19,1126.48,302.74z M1611.11,490.16V299.99l-0.03,0.03c-0.61-70.93-24.98-135.99-65.28-187.15
		c8.23-1.03,16.62-1.56,25.14-1.56c106.47,0,192.78,82.5,192.78,191.44C1763.71,397.59,1698.3,472.39,1611.11,490.16z"/>
</g>
</svg>
